<svg xmlns="http://www.w3.org/2000/svg" viewBox="0 0 1797.57 1380.88"><defs><style>.a{fill:#62e0ce;}.b{fill:#fff;}</style></defs><title>logo-liz_caribbean</title><path class="a" d="M1266.5,1082.4c2,0.11,4.18-1.13,6-2.23,74.16-46,140.28-101.33,196.93-167.86,40.57-47.65,74.91-99.38,101.44-156.08,28.1-60.08,46.51-122.87,50.89-189.4,3.43-52.07-1.71-103.06-19-152.48-31.84-90.74-92.36-156.23-177.54-199.35-59.62-30.18-123.59-44.19-190-47.82a615.6,615.6,0,0,0-133,7.45c-77.86,12.69-151.75,37.55-222.25,72.7A826.43,826.43,0,0,0,751.46,326.6c-15.8,11.89-30.94,24.65-46.46,36.93,0,0-452.7,488.89-208.6,756.94S1266.5,1082.4,1266.5,1082.4Z"/><path d="M638.37,504h0Z"/><path class="b" d="M780.25,771.91c1.88-2.34,3.45-4.2,4.91-6.15,6.17-8.24,11.92-16.82,18.52-24.69,18.68-22.28,37.12-44.81,56.79-66.19,14.49-15.74,29.84-31,46.51-44.31a480.22,480.22,0,0,1,57.27-38.94c23.53-13.76,48.18-25.64,72.52-38,16.29-8.27,33.22-15.32,49.25-24,17.49-9.51,34.34-20.22,51.35-30.6,16.54-10.09,30.18-23.48,42.25-38.48,9-11.19,21-15.77,32.81-11.7,2.43,0.83,6.06,2.88,6.18,4.58,0.17,2.37-1.89,5.63-4,7.29-7,5.6-14.38,10.71-21.69,15.91-4.4,3.13-4.49,4.84.11,7.5,3.31,1.92,6.84,3.46,10.17,5.36,5,2.87,5.44,7.32.83,10.62a60.43,60.43,0,0,1-8.67,4.84c-7.91,3.88-15.9,7.61-23.82,11.46-3.79,1.84-2.86,4-.07,5.87a15.28,15.28,0,0,0,4.1,1.76c5.73,1.75,11.54,3.25,17.2,5.17,6.24,2.11,6.9,5.05,2.19,9.62-8.41,8.17-18.78,13.07-29.63,17-11.84,4.3-22.75,9.66-31.4,19.45-3.49,4-9.19,7.54-14.29,8.22-17.34,2.3-33.72,7.64-50,13.51a43.77,43.77,0,0,0-10.24,5,10,10,0,0,0-3.53,6c-0.15.79,2.84,2.73,4.64,3.21a46,46,0,0,0,10.73,1.68c9.49,0.22,19-.33,28.49.19,9.74,0.53,19.73.54,28.38,6.36,7.64,5.14,8.87,10.07,4.36,18.2-1.45,2.61-3.24,5.12-4.15,7.91-2,6.11,1,10.34,7.44,10.34,5.48,0,11-.79,16.43-0.87,6.51-.09,8.81,3.33,6,9.34-1.73,3.72-4.78,6.83-6.57,10.53-1.12,2.32-2.06,5.73-1.12,7.74,0.71,1.51,4.5,1.94,7,2.14,2.26,0.19,4.61-.93,6.9-0.85,3.95,0.14,8.07.15,11.77,1.31,9.53,3,10.81,9.12,3.84,16.25-1.16,1.19-2.32,2.4-3.37,3.69-3.77,4.66-8.72,4.69-13.62,2.89a43.21,43.21,0,0,1-9.47-5.43c-5.87-4.08-11.18-9.16-17.43-12.47-14.37-7.6-29.35-12.3-46.25-11.5-17.31.83-31.94,7.1-45,17.45-14,11.05-23.38,25.77-30.17,42.08-1.25,3-.65,6.78-0.9,10.2,3-1.43,6.6-2.22,8.83-4.42,9.37-9.2,18.14-19,27.52-28.19a35.1,35.1,0,0,1,11.49-7.54c6.73-2.61,10.79.5,10.91,7.62,0.05,3-.62,5.95-0.85,8.93-0.3,4.07-1.87,9,2.86,11.2s7.79-2.2,11-5c3.37-2.93,6.32-6.62,10.16-8.62,3.4-1.78,8.63-3.37,11.44-1.92,2.28,1.17,2.34,7,3.07,10.75a83.66,83.66,0,0,1,.79,8.49c3-1,6-2,9-3a7.35,7.35,0,0,0,.81-0.58c4.28-2.22,8.39-4.89,12.88-6.53,6.19-2.26,9.77.14,10.31,6.69,0.65,7.85-2.55,14.66-9.54,17.81a128.1,128.1,0,0,1-25.09,7.84c-21.94,4.82-44.18,8.35-66,13.75q-42.15,10.44-83.72,23.15c-17.29,5.28-34.15,12.1-50.86,19A390.26,390.26,0,0,0,869.7,836.6c-16.55,9.16-32.77,19-48.62,29.31A338.89,338.89,0,0,0,790.43,889c-10.6,8.76-21.16,17.72-30.72,27.58a315.36,315.36,0,0,0-27.36,32.37c-13.67,18.58-27.62,37.14-39.29,57-11.35,19.3-20.08,40.15-29.77,60.41-3,6.36-8.47,17-11.43,24.12a26.61,26.61,0,0,0,2.83-.24c11.5-2.68,23-5.52,34.52-8,3.19-.68,6-1,6-1s4.58-14.23,5.92-17.06c6.35-13.49,12.55-27.07,19.44-40.29A206,206,0,0,1,736.7,997c9.82-13.38,20-26.65,31.1-38.91,13.52-14.87,27.69-29.25,42.6-42.71a403.44,403.44,0,0,1,41.85-33.07c18.48-12.69,37.38-25,57.13-35.51s40.31-19,60.89-27.53c31.59-13.07,63.83-24.2,98.1-28,3.75-.41,7.58-0.06,12-0.06a17.67,17.67,0,0,1-1.18,3.16c-6,7.93-12.31,15.67-18.07,23.79-10.53,14.84-17.09,31.39-17.46,49.64-0.15,7.42,2.52,14.92,4.23,22.32,0.35,1.52,2.12,2.72,3.23,4.06a51.86,51.86,0,0,0,4-3.37,7.48,7.48,0,0,0,1.85-2.93c2.23-7.48,4.3-15,6.49-22.51,2.84-9.71,5.65-19.43,8.65-29.09,1.09-3.51,2.83-8.09,7.06-6.82,2.63,0.79,4.17,5.24,6.14,8.09a8.22,8.22,0,0,1,.24,1.46c2.07,5.25,4.16,10.48,6.25,15.72l2.14-.15c1.53-4.1,2.94-8.25,4.61-12.3,2.79-6.74,5.25-13.68,8.77-20,3.87-7,8.45-7,13.76-1,4.09,4.6,6.6,4.07,9.11-1.77,1.71-4,3.51-7.91,5.55-11.71,2.75-5.12,5.8-6,11.2-3.52,1.36,0.62,2.68,1.34,4,2.1,6.16,3.59,7,3.21,12-1.55,5.73-5.47,11.3-11.54,18.05-15.41,8.9-5.1,19.29-6,29.6-5.49,5,0.23,7.74,2.49,8.63,7.27,1.62,8.71,1.63,17.4-2.78,25.29a153.53,153.53,0,0,1-11.86,17.74c-6.59,8.69-6.81,11.61.45,19.06,3.15,3.24,2.41,6.07-.41,8.57A74.45,74.45,0,0,1,1195,869c-7.16,4.53-7.42,6.84-.61,11.93,3.38,2.52,5.33,5.73,4.7,9.82s-4.25,5.36-7.89,6.58c-6.6,2.22-13.14,4.72-19.5,7.55-1.67.74-2.61,3.12-3.89,4.74,1.69,1.11,3.26,2.53,5.1,3.27,3.23,1.31,6.69,2,9.94,3.31,4.94,1.93,6.18,5.75,2.76,9.74a76.35,76.35,0,0,1-11.36,11.11c-11.08,8.47-22.52,16.47-33.68,24.84-1.66,1.25-2.54,3.55-3.78,5.36,2.19,0.88,4.32,2.38,6.56,2.55a56.47,56.47,0,0,0,33.91-8.09c13.91-8.23,24.62-19.57,34-32.52A96.41,96.41,0,0,0,1226,900.61c6.69-21.75,8-44.1,9.46-66.52,0.91-13.57,2.46-27.11,4.33-40.58,0.41-2.91,3.68-7.86,5.24-7.72,4.41,0.41,4.17,5.09,4.34,8.72,0.38,7.81.63,15.63,1.11,23.43,0.3,4.79,1.86,5.35,5.88,2.66a56.27,56.27,0,0,1,7.79-4.45c7.77-3.56,13.36-1.29,15.22,6.94,1,4.38.12,9.19,0,13.8-0.1,5.78,1.79,7.68,7.33,7.27,9.47-.7,12.84,3.13,10.92,12.62-1.32,6.52-3.11,13-4.07,19.54-0.33,2.24,1.23,4.75,1.93,7.14,2.07-1.12,4.38-2,6.17-3.42,4.19-3.46,7.78-7.74,12.25-10.74,6.52-4.37,11.83-1.45,11.21,6.43a91.9,91.9,0,0,1-4.5,21.36c-3.65,11.05-8.3,21.77-12.28,32.72-0.8,2.2-.51,4.81-0.72,7.23l2,0.89c3.31-3.57,6.72-7.06,9.91-10.73,16.4-18.88,26.64-40,24.86-65.87-0.92-13.46-5.54-25.35-14.37-35.31-12.53-14.13-28.16-24.75-42.75-36.56a62.48,62.48,0,0,1-12.14-12.39c-1.58-2.26-1.45-6.87-.26-9.61,1.46-3.33,5-7,9.1-5.07,2.5,1.19,3.82,5.16,5.34,8.05a68.52,68.52,0,0,1,2.91,7.78c2.78-3.06,4.54-5.24,6.56-7.17,4.34-4.15,8-4.15,12.11,0,2.22,2.24,4.13,4.78,6.24,7.13,5.09,5.69,7.22,5.35,9.71-1.79,1.35-3.87,3-7.36,7.64-7.3s7.29,3.05,8.65,7.14c2.19,6.61,3.94,13.37,6.3,19.92,1.65,4.57,1.2,10.39,7.52,13.72,0.89-2.8,2.1-5,2.22-7.29,0.31-5.94.13-11.91,0.17-17.86,0.08-14.74-4-27.82-16.54-36.62-7-4.9-14.39-9.87-22.36-12.58-6.41-2.18-9.84-5.51-11.82-11.35-1.87-5.51-3.1-11.4-5.9-16.4-2.12-3.78-5.73-7.67-9.61-9.33-12.77-5.48-25.21-2.19-36.87,4-8.5,4.49-16.49,10-24.88,14.66-7.61,4.27-10.47,2.59-12.19-6.1-3.17-16-6.06-32.07-9.95-47.89-5.34-21.74-16.37-40.23-33.8-54.66-7.29-6-14.52-12.18-21.53-18.54-3.45-3.13-3-4.8,1.28-6.36,6.88-2.49,13.86-4.67,20.78-7,14.92-5.1,28.2-13.13,38.64-24.83,15.42-17.27,22.88-38.39,26.58-60.93,4.11-25,4.72-50.31,5.25-75.61a177,177,0,0,1,2.41-23.31c0.32-2,2.42-4.93,4.19-5.33,2.07-.47,5,0.9,6.93,2.29a10.68,10.68,0,0,1,3.52,5.31c2.44,7.75,5,15.49,6.67,23.43,1.42,7,1.55,14.21,2.35,21.31,0.65,5.77,1.68,6.33,7,4.5s10.73-3.59,16.15-5.2a5.93,5.93,0,0,1,4,.22c0.49,0.25.29,2.38,0,3.54-1.88,7.25-4.31,14.38-5.65,21.72-0.67,3.65-.67,8.52,1.26,11.28,2.6,3.71,6.22-.58,9.26-1.63,4.84-1.68,7.6-.53,9,4.47,2.06,7.18,0,13.84-2.55,20.44-1.67,4.35-3.67,8.6-5,13.06a7.31,7.31,0,0,0,1,5.87c0.84,1,3.61.93,5.33,0.53,2.39-.57,4.56-2,6.89-2.87,3.4-1.31,6.77-2.94,10.31-3.6,5.13-.95,7.54,1.61,7.1,6.81a14.79,14.79,0,0,1-1,4.87c-3.9,8.45-7.66,17-12,25.2-6,11.3-12.58,22.31-18.77,33.53-0.68,1.23-.38,3-0.53,4.53,1.47-.45,3.32-0.49,4.34-1.43,8.3-7.65,17.08-14.9,24.5-23.34,17.09-19.42,28.57-41.25,26.16-68.36a108.32,108.32,0,0,0-13.21-43.14c-6.81-12.31-15.18-23.85-26.35-32.82-6.65-5.34-7.32-12.33-6.29-19.86,0.84-6.15,5.08-11.65,9.24-11.92,5.82-.38,8.86,3.87,10.68,8.32,2.81,6.86,4.84,14.05,7,21.18a79.9,79.9,0,0,1,1.64,9.09l1.3,0.51c3.15-3.89,6.23-7.84,9.47-11.65,4-4.68,8.57-9.58,15.17-7.18,5.68,2.07,6.52,8.24,7.4,13.77a156.8,156.8,0,0,0,3.24,17.1c1.41,5.14,3.72,5.59,7.75,1.85a99.43,99.43,0,0,0,7.76-8.44c7-8.18,17-8.63,22,0a107.71,107.71,0,0,1,10.85,24.53c4.2,14.71,7,29.82,10.56,44.71,0.48,2,2.37,3.59,3.6,5.38,1.36-1.72,3.44-3.25,4-5.21,2.87-10.56,5.93-21.13,7.84-31.88a101.71,101.71,0,0,0-7.11-59.58c-2.09-4.77-4.29-10.11-8-13.44-9.63-8.64-20-16.5-30.36-24.28-5.27-4-10.79-8.11-16.87-10.34-7.07-2.6-14.82-3.81-22.38-4.51q-23.59-2.18-47.28-3.08c-13.15-.49-26.33-0.2-39.5,0-7,.08-14,0.74-20.94.86-5.92.11-6.68-1.22-4.22-6.4,1.79-3.76,3.72-7.46,5.35-11.29,4.74-11.2,9.65-22.42,10.37-34.76,0.64-10.89-1.53-21-10.9-28-4.11-3.1-8.34-6.08-12.69-8.83s-5.67-6.6-6.41-11.57-1.93-11.45-5.37-14.52c-11.22-10-22.8-19.55-39-21.74-14.59-2-27.42.61-39.32,8.81-1.32.91-2.06,2.66-3.08,4,1.75,0.77,3.51,2.24,5.23,2.19,5.47-.17,11-1.65,16.37-1.25,7.83,0.58,15.93,1.37,23.26,3.93,7,2.43,6.68,9.05.21,12.72-2.31,1.31-5,2.07-7.16,3.54-3.51,2.35-7.82,4.05-9.42,9,4.6,0.49,8.55.83,12.48,1.34,10.95,1.44,15.8,11.62,10,20.92-4,6.38-3.78,6.68,3.84,7.08a19.66,19.66,0,0,1,4.91.78c4.49,1.43,7.23,5.44,6.63,9.38-0.77,5-4.18,8.48-9.28,7.59a24.59,24.59,0,0,1-11.79-5.36c-6.53-5.87-12.34-12.56-18.23-19.11a98.19,98.19,0,0,0-31.87-23.55c-28.09-13-55.34-9.51-80.87,6.71-13.87,8.81-24.71,21.2-33.17,35.4-0.91,1.53-.21,4-0.26,6.07,1.7-.06,3.76.5,5-0.26,10.4-6.21,20.61-12.73,31-19,8.68-5.29,17.45-10.46,27.69-12.25,6.49-1.14,9.25,1.78,7.55,8.11a16.9,16.9,0,0,1-1.88,4.59c-2.56,4.08-5.53,7.91-7.86,12.11-1.09,2-2.18,5.36-1.25,6.61,1.07,1.43,4.35,1.45,6.7,1.61,1.41,0.1,2.9-.64,4.33-1.1,7.28-2.37,14.5-5,21.85-7.08,4.68-1.35,10.3-4,14.07.43s1.09,9.84-1,14.65c-1,2.34-2,4.66-3.05,7a9.36,9.36,0,0,0,4.77-.84c6.74-2.29,13.38-5,20.26-6.65,6.57-1.6,10.15,2.07,9.37,8.9-0.41,3.63-1.39,7.19-2,10.79-0.95,5.2,1.71,9.09,7,9.25,3.59,0.11,7.2-1.29,10.81-1.41a119.45,119.45,0,0,1,17.61.36c3,0.35,6.16,2.25,6,6.27s-3.42,4.93-6.56,5.68c-12.63,3-25.19,6.43-37.95,8.79-8.79,1.62-17.84,1.85-26.79,2.42a5.06,5.06,0,0,1-3.91-2.2c-0.47-.83.32-3.11,1.26-3.85,3.19-2.52,6.68-4.68,10.1-6.91a28.52,28.52,0,0,1,3.25-1.59l-0.09-1.3c-1.62-.33-3.25-1-4.86-0.95-8,.24-13.49,4.81-18.21,10.81-3,3.76-5.79,8-9.65,10.6-11.46,7.59-23.74,14-35.08,21.73-9.91,6.78-19.89,13.91-28.09,22.54-5.72,6-9.21,14.53-12.45,22.44-8.05,19.62-11.36,40-6.7,61.09a23.32,23.32,0,0,0,1.83,3.94,44.31,44.31,0,0,0,2.89-3.83c2.8-4.89,5.86-9.66,8.21-14.76,5.19-11.27,10-22.71,15-34.1,1.78-4.1,3.15-8.42,5.31-12.31,2.63-4.73,7.39-4.93,10.43-.49,2.8,4.09,4.92,8.65,7.62,12.83,1.07,1.65,2.9,2.81,4.38,4.19,1.45-1.67,3.48-3.11,4.23-5.05,1.84-4.75,3.06-9.73,4.57-14.61,1.77-5.72,3.41-11.49,5.44-17.12,1.52-4.2,4.94-5,8.21-1.94,1.93,1.79,3.27,4.19,5,6.19,2.45,2.8,5,5.49,8.36,9.09,1.19-3,1.94-4.78,2.58-6.57,2.62-7.35,4.86-14.87,7.92-22,2.43-5.67,6.78-5.85,10.87-1.17,2.74,3.13,5.4,6.36,8.42,9.2,4.47,4.2,9.13,2.82,11-3a86.51,86.51,0,0,1,3-9,10.08,10.08,0,0,1,3.45-3.91c3.19-2.19,6.88-3.73,9.85-6.17,3.83-3.15,6.87-7.3,10.84-10.22,1.7-1.25,4.9-.47,7.42-0.62,0,2.5,1,5.62-.18,7.41C1197.25,394,1190.48,405,1182.62,415a457.92,457.92,0,0,1-31.18,36.3c-8.36,8.67-17.44,17.16-27.6,23.48-20.42,12.7-41.64,24.15-62.81,35.59-18.87,10.2-38.06,19.81-57.2,29.5-32.47,16.44-65.25,32.35-95.73,52.39-13,8.57-25.61,17.88-38.18,27.15,0,0-101.6,106.86-125.09,138.94s-97.25,192.93-97.25,192.93-3,10.68-5.74,12.79c-3.9,3-4,7-5.6,10.67s-2.77,7.19-4.72,10.45c-7,11.75-14.47,23.28-21.5,35-8,13.4-36.2,62.54-36.2,62.54s16.9,14.07,21.75,18.28c2.1,1.82,4.57,3.23,6.55,5.15,2.58,2.5,5,5.28,9,3.41l26.84-12.43s10.19-40.76,15.13-57.46c3.48-11.78,7.68-23.37,11.93-34.9,5.05-13.69,10.39-27.29,15.83-40.83,5.73-14.26,11.72-28.42,17.84-43.21Zm463.91-27.43c4.93-6.24,9.71-12.75,17.91-15a10.35,10.35,0,0,1,5.87-.05c1.79,0.64,3.17,2.43,5.27,4.16-1.81,2.11-2.76,4.19-4.32,4.88-7.25,3.22-14.66,6.1-22.07,9a3.22,3.22,0,0,1-2.63-.69A2.31,2.31,0,0,1,1244.15,744.48Zm0.06,13.9c3.85,3.11,7.27,5.65,10.37,8.52,0.85,0.79.75,2.6,1.09,3.94-1.35,0-2.92.37-4-.17C1244.21,767.07,1242.91,765,1244.22,758.38Zm-38.74-22.21c0.38,0.53-.59,3-1.22,3.13-3,.59-12.76-8.95-13-12.71C1197.69,727.39,1202,731.28,1205.48,736.17Zm-22.23,14.65a6.86,6.86,0,0,1-3.26,1.11c-6.56,1-13.12,2.14-19.72,2.9-2.63.3-5.36-.24-8-0.4l-0.37-2c1.56-1.06,3-2.48,4.71-3.1a153.75,153.75,0,0,1,17.09-5.43c2.91-.67,6.22-0.07,9.25.49a4.23,4.23,0,0,1,2.63,3.07C1185.6,748.54,1184.28,749.95,1183.24,750.82Zm107-360.92c-3.49-1.14-7.29-1.75-10.41-3.54a117.69,117.69,0,0,1-14.27-10c-1.08-.86-1-3.14-1.5-4.77,1.51-.29,3.13-1.12,4.5-0.8,10.18,2.37,16,10.34,22.91,16.84Z"/><path d="M1769.29,1092.6c-2.73-7.42-8.18-13.84-12.47-20.68a34.52,34.52,0,0,0-3.56-5.4c-14.12-15.14-31.65-19.75-51.76-17-15.69,2.12-29.79,8.27-43.24,16.11-3.85,2.24-5.94,1.59-8-2-6.71-11.65-17.55-16.15-30.22-15.57-7.69.35-15.41,2.42-22.88,4.55-4.52,1.29-8.4,1.63-13,.21a62.9,62.9,0,0,0-17.1-2.87,228.16,228.16,0,0,0-89.62,16.26c-13.89,5.52-27.27,12.34-40.72,18.89-6,2.93-8.61,2.45-11-4-5.32-14.3-15.76-23.18-29.67-28.3a75.21,75.21,0,0,0-35.37-4.25c-3.82.46-7.66,0.71-11.5,1.06l-0.45-1.27c3.63-2.14,7.52-3.93,10.82-6.5,4.14-3.21,7.78-7.07,11.66-10.62,11-10.06,24.2-17.53,33.89-29.1a13.67,13.67,0,0,1,1.08-1c13.45-12.87,27.36-25.3,40.24-38.71,21.74-22.63,42.87-45.84,61.52-71.17,18.07-24.53,35.46-49.52,50.23-76.21,8.6-15.54,17.08-31.18,24.8-47.17a552.73,552.73,0,0,0,33.62-87.43c10.85-37.7,18.68-75.92,20-115.22,0.58-16.78.45-33.61,0-50.39-0.82-27.23-5.46-53.93-12.71-80.18-11.21-40.56-28.11-78.45-52.7-112.81-14.49-20.24-29.92-39.61-48.52-56.26-9.64-8.62-19.08-17.53-29.25-25.48-9-7-18.74-13.22-28.46-19.3-21.9-13.71-44.66-25.83-69-34.73-16.87-6.18-33.82-12.27-51.1-17.13a429.43,429.43,0,0,0-78.49-14.56c-21-1.86-42.17-3.44-63.28-3.72a561.83,561.83,0,0,0-91.58,6.26c-15.27,2.31-30.73,3.95-45.72,7.49-26.36,6.23-52.54,13.3-78.58,20.77-16,4.58-31.69,10.11-47.2,16-14,5.34-27.56,11.68-41.21,17.84-12.6,5.68-25.3,11.2-37.49,17.68-16.5,8.77-32.57,18.35-48.79,27.65-9.51,5.45-19.22,10.6-28.35,16.64-10.9,7.21-21.34,15.13-31.86,22.89Q737.05,315.09,722,326.68c-9.42,7.3-18.64,14.84-28,22.33l-5-9a99.5,99.5,0,0,0-36-37.34c-16.49-9.85-35-14.63-54.17-15.74-32.55-1.88-63.1,5-91.43,21.38-15,8.66-28.9,18.66-39.71,32.47-2.84,3.63-6.1,6.94-9.83,11.15a55.42,55.42,0,0,1,1.2-6q9.93-30.55,20-61.07,10.24-31.27,20.5-62.54,11.72-35.82,23.4-71.65c3.54-10.88,6.66-21.92,10.57-32.66,2.25-6.17,3-13.31,9.92-17.11A222,222,0,0,0,562.4,89a76.64,76.64,0,0,0,10.15-8.76c5-4.92,5.55-19.91.63-25.25-3.48-3.77-5.23-9.12-7.91-13.67a50.77,50.77,0,0,0-5-7.26c-6-7.1-13.88-11.21-22.93-13.12h-21c-14.73.47-29.46,1.11-44.19,1.33-5.26.08-10.54-.85-15.81-1.33h-31c-1.08.42-2.15,0.9-3.26,1.24-15.1,4.6-24.72,14.61-29,29.71-3.94,14.05-.42,26.46,9.66,36.7,3.36,3.41,4,6.25,2.55,10.55-5.24,15.39-10.19,30.88-15.32,46.31s-10.49,30.87-15.52,46.37c-7,21.54-13.73,43.16-20.69,64.72-6.9,21.39-13.95,42.74-20.92,64.12-8.26,25.32-16.21,50.74-24.86,75.91a122.39,122.39,0,0,1-24.68,42.48c-7.3,8.1-14.92,15.92-22.6,23.66-1.27,1.28-3.58,1.51-5.42,2.22h-1l-1,1c-3.2,3.39-6,7.44-9.71,10-7.88,5.47-16.41,10-24.43,15.28-4.81,3.17-10.6,6.19-13.34,10.82a59.27,59.27,0,0,0-7.21,21.44A29.39,29.39,0,0,0,206.55,548c5.12,5.3,12.47,8.61,19.19,12.12,3.12,1.63,5.49,3,6.76,6.54,1.54,4.36,3.16,9.18,6.21,12.42,13.12,13.94,30.19,19,48.62,8.54,2-1.14,4.22-1.93,6.27-3,5.55-2.87,11.16-5.65,16.59-8.74,5.17-2.94,9.78-7.42,15.28-9.1A66.12,66.12,0,0,1,358.61,565c13.65,2.92,27.18,6.63,40.53,10.72,11.94,3.66,23.58,8.31,35.38,12.53-14.25,33.36-25,66.28-3.71,100.69a18.12,18.12,0,0,1-5.13-1.45c-11.43-5.06-22.74-10.4-34.29-15.17a324.68,324.68,0,0,0-105.17-24.13c-34-2-67.94-.35-101.13,8.74-44.72,12.25-83.53,34.32-115,68.67C52.14,745.12,38.62,767.26,32,793a242.31,242.31,0,0,0-6.88,37.23c-0.93,9.67.39,19.61,1.18,29.39a139.34,139.34,0,0,0,15.34,53.95,151.68,151.68,0,0,0,56.31,60.33c10.64,6.46,21.92,11.89,33.06,17.49,5.73,2.88,11.78,5.11,17.32,7.47-4,10.63-8.35,20.53-11.56,30.77a377.82,377.82,0,0,0-10.49,38.88c-4.12,20.62-4.9,41.6-4,62.61,0.91,20.59,4.37,40.8,11.47,60.14,9,24.59,20.91,47.61,39.05,67.06,7.82,8.38,15.39,16.89,24.74,23.64,16,11.58,33,21,52.12,26.71,23.38,6.93,47.13,8.06,71.19,6.15,7.77-.61,15.71-0.82,23.23-2.62,20-4.81,40-10.21,58.69-19.17,11.79-5.65,23.66-11.15,35.39-16.93,5.28-2.6,10.32-5.72,15.81-8.8a37.75,37.75,0,0,0,2.31,5.22c4.07,6.17,7.35,13.23,12.59,18.19,16.7,15.81,37.16,18.53,58.64,13.25,10.74-2.64,21-7.37,31.39-11.31,2.47-.94,4.28-1.82,6.51.84,7.63,9.09,17.86,13.26,29.34,11.53,12.46-1.88,24.63-5.63,37-8.24a10,10,0,0,1,7.12,1.18c8.64,6.15,18.21,10.27,28.55,7.8,18.74-4.47,38.82-4.13,55.89-14.92a25.49,25.49,0,0,1,4.2-1.58c3.83-1.54,5.76-.52,7.41,3.6,3,7.52,5.81,15.64,10.84,21.74,7.33,8.88,15.25,17.52,25.61,23.51A104.85,104.85,0,0,0,818.27,1352c22.69,1.39,42.12-8.74,61.49-18.16a111.64,111.64,0,0,0,36.77-28.32,10,10,0,0,1,5.45-3.12A238,238,0,0,0,978.56,1285c9.07-4.14,18.38-7.76,27.28-12.22,5.27-2.64,5.59-2.91,6.37,2.85,1.91,14,12.58,26.85,26.54,29a121,121,0,0,0,31.25.41c18.86-2,37.77-4.79,55.48-12.1,17.07-7,33.92-14.65,50.79-22.18,5-2.24,9.78-5.08,14.3-7.46,1.65,3.38,3.11,6.54,4.71,9.62,6.12,11.77,14.72,21,26.74,27.08,20.49,10.31,41.83,10.72,63.19,4.37,13.34-4,26.07-10,39-15.25,2.37-1,3.78-1.39,6,.94,3.36,3.6,7.14,7.41,11.53,9.32,14.63,6.36,30,9.42,45.79,5,11-3.06,21.71-7.31,32.48-11.24,3.27-1.19,5.9-2.49,8.76,1.11,6.2,7.8,15,11.64,24.52,10.72,11.51-1.11,22.87-4.08,34.22-6.55,5.21-1.13,9.55-1.89,14.48,2.1,7.83,6.35,17.29,8.23,27.29,5.45,10.59-2.94,21.07-6.33,31.77-8.83,8-1.87,15.54-4.18,22.56-8.72,6.08-3.93,9.44-2.78,13.49,3,7,10.08,16.67,15.37,28.85,14.55a143,143,0,0,0,26.58-4.16,315.74,315.74,0,0,0,74.77-30.26c3.87-2.18,8.27-4,11.28-7,7.88-8.06,7.61-17.8,1-27.1-4.13-5.82-7-12.48-10.78-18.6-1.73-2.84-1.25-5.1.13-7.83,8-15.9,16.27-31.72,23.77-47.88s15.45-32.45,19.37-50.24C1773.72,1105.46,1771.56,1098.77,1769.29,1092.6ZM710.34,396.8a81.18,81.18,0,0,0-3.6-18.55c-1.47-4.54-.17-7,3.13-9.6,15.28-12.09,30.19-24.66,45.75-36.36A813.79,813.79,0,0,1,882.1,254.22c69.43-34.62,142.19-59.09,218.85-71.59a606.19,606.19,0,0,1,131-7.34c65.35,3.58,128.35,17.37,187.06,47.09,83.88,42.46,143.47,106.95,174.82,196.3,17.07,48.66,22.13,98.88,18.76,150.15-4.31,65.51-22.43,127.35-50.11,186.51-26.12,55.83-59.93,106.77-99.88,153.7-55.78,65.51-120.9,120-193.92,165.29-1.76,1.09-4,2.31-5.88,2.2-21.47-1.21-41.11,5.07-60.08,14.26-0.44.21-.91,0.34-1.79,0.67,6.44-19.3,13.4-37.86,18.76-56.87,4.86-17.24,9.09-34.82,11.56-52.54,2.38-17.07-10.34-25.31-26.6-19.18-23.52,8.86-47.16,17.38-70.78,26-12,4.34-16.27,13.52-11.66,25.31,1.21,3.1,2.65,6.12,3.77,9.25,2.9,8.08,8.24,13.14,18,14l-18.33,51.64c-21.9-18-45.48-13.87-69.14-6.84-7.61,2.26-14.84,5.82-23,9.08,2.37-6.76,4.86-13.11,6.84-19.61,7.29-24,14.65-48.05,21.44-72.22,1.87-6.65,2.43-13.8,2.63-20.75,0.37-13.15-11.64-21.37-24-16.86q-37.06,13.5-74.1,27.08c-11.72,4.3-15.8,13.39-11.29,25.07,1.08,2.8,2.37,5.51,3.34,8.35,2.94,8.61,8.36,14.24,18.38,15.1-4.61,13.07-8.84,25.85-13.6,38.43-13.13,34.7-26.73,69.23-39.55,104.05-2.6,7.08-6,10.35-13.39,9.63-1.63-.16-3.29,0-5.73,0,3.68-7.65,7.18-14.89,10.66-22.14,1.87-3.9,3.83-7.77,5.46-11.77,0.73-1.8,1.5-4.15.94-5.8-2.15-6.34,1.8-9.23,5.78-12.91,18.06-16.7,20.59-40.78,5.93-58.21-11.29-13.43-26.69-16-43.16-14.29-11.1,1.14-20.68,5.91-29.19,13.05-1.13.95-3.47,1.76-4.58,1.24-19.66-9.29-37.32-3.47-54.41,6.92-3.82,2.32-7.5,4.88-11.67,7.6-1.26-3-2.36-5.9-3.62-8.69-5-11.17-15.44-15-25.85-8.76-6.79,4.05-12.67,7.2-20.62,2.06-3.4-2.2-8.7-2-13.13-2a225.86,225.86,0,0,0-44.89,4.61q-6.15,1.41-12.28,2.87a257.83,257.83,0,0,0-56.54,22.51c-3.15,1.69-5.2,1.53-7.8-.73-6.4-5.57-12.81-11.18-19.6-16.25-4.39-3.28-5.06-6.9-4.25-12,2.76-17.34,3.75-34.83,1.37-52.29-3.35-24.59-5.18-29.3-17.82-51.28,2.36-.31,4.56-0.62,6.77-0.87s4.6-.46,7.28-0.73c0.65,2.2,1.24,4.22,1.84,6.24,3.43,11.53,11.63,18.86,22.39,20a28.37,28.37,0,0,0,28.72-15c4-7.56,5.21-15.77,5-24.18-0.09-3.26.91-4.84,4-6.36,7.5-3.7,15-7.48,22.31-11.41q14-8.21,28-16.33a232.86,232.86,0,0,0,37.93-30c31.76-31.47,49.25-69.6,50-114.62,0.17-9.72-2.16-19.47-3.06-29.23-0.16-1.76.49-4.29,1.72-5.38,29.51-25.89,52.72-56.81,72.51-90.45a94.18,94.18,0,0,0,8.8-19.48c5.23-16.77-4.62-32.32-22-35.73-13.19-2.59-25.28,3.22-31.23,16-14.32,30.79-37.08,55.51-57.65,81.78L724.32,679c8.05-6.87,16.2-13.69,24.2-20.67,21.34-18.6,42.53-37.38,64-55.85,5.4-4.65,11.69-8.26,17.31-12.68,7.4-5.82,13.83-12.58,17.34-21.56a32.07,32.07,0,0,0-24.86-43.45c-18.47-3-32.91,3.83-42.89,19.61-7.56,12-3.79,11.49-17.63,5.7-14.58-6.1-29-12.57-43.62-18.6-25.12-10.38-48.25-5.33-70,9.56-16.95,11.62-29.4,27.45-40.74,44.2-8.94,13.21-16.52,27.4-26.14,40.06-9.23,12.13-20.29,22.87-30.61,34.15a12.6,12.6,0,0,1-5.42,3.28c1.1-2.48,2.13-5,3.32-7.44,13-26.44,26-52.9,39.22-79.24,1.05-2.1,3.54-3.87,5.77-4.92,36.3-17.22,66.8-41.45,88.88-75.22C702.05,466,713.21,433.22,710.34,396.8Z"/><path d="M638.37,504h0Z"/><path class="b" d="M866.36,1122.33a37.17,37.17,0,0,0,50-13.36c4.09-6.87,3-18.13-1.44-23.18a26.78,26.78,0,0,0-21.59-9.69c-15.51-.05-26,6.15-33.68,19.21C854.78,1103.63,858,1117.64,866.36,1122.33Z"/><path class="b" d="M606.37,478.79c1.26-8.56-3.89-20-12.25-22.71-18.45-6-32.61-2.17-44.55,13.38-2.5,3.25-3.42,7.7-5.08,11.6,0.85,9.9,5.41,17,14,21C574.82,509.46,603.12,500.82,606.37,478.79Z"/><path class="b" d="M830.31,612.09c-5.25-2.31-10.81-.18-13.52,5.92-6,13.59-14.17,25.87-22.62,38-4.41,6.33-8.72,12.75-13.5,18.79-6.07,7.67-12.64,14.94-18.88,22.48-5.48,6.63-10.73,13.44-16.24,20-1,1.25-2.8,1.9-3.89,2.62-16.76-23.75-37.87-38.94-67.06-41a2.91,2.91,0,0,1,.49-1.09c0.56-.34,1.21-0.53,1.81-0.81,6.8-3.24,13.81-6.1,20.31-9.86,4.11-2.38,7.45-6.1,11.13-9.22,14.31-12.15,28.41-24.55,43-36.38,19.61-15.92,36.67-34.82,57.73-49a71.42,71.42,0,0,0,10.32-8.92c4-4,6.91-8.63,6.19-14.64s-4.3-9.82-9.69-11.62c-7-2.32-14.45-2.5-19.6,3.29-6,6.75-11,14.44-16,22-2.21,3.38-4.6,4.68-8.54,4.63-14.37-.18-25.7-9.36-38.94-12.93-5.76-1.55-10.83-5.52-16.32-8.17-23.94-11.54-47-10.75-67.65,6.86-19.85,16.91-34.66,38-47.11,60.81a128.3,128.3,0,0,1-10.78,17.32c-5.35,6.91-11.57,13.14-17.34,19.73-9.26,10.59-19.25,20.41-32.07,26.53A32,32,0,0,1,527.56,680c-6.27-.11-10-4.35-9.17-10.61,0.9-6.85,2.26-13.91,5-20.19,6.19-14.26,13.27-28.14,20.11-42.11,7.8-15.94,15.78-31.79,23.6-47.73a18.59,18.59,0,0,1,9.61-9.43,218,218,0,0,0,27.75-14.71c8.2-5.26,15.35-12.13,23.3-17.83,4.31-3.09,8.26-6.11,9.67-11.48l1-1q0-.5,0-1h1l1-1c4.42-.12,6.89-2.76,8.51-6.54a9.75,9.75,0,0,1,1.06-2.15c4.89-6.35,10.15-12.45,14.66-19.06,8.63-12.66,14-26.84,18-41.56,6.59-24.65,7.53-49-5.12-72.3C670.19,348,659.69,338,645.78,332.14c-23.05-9.74-47-9.7-70.56-2.92-26.11,7.52-49.59,19.5-65.36,43.59-8.91,13.61-13.7,27.7-12.2,43.68,1.15,12.32,7.9,21.83,19.63,25.43,17.24,5.29,34.19,4.33,48.78-8.31a7.65,7.65,0,0,1,3.13-1.34c7-1.74,14.72-11.41,15.16-19.55-2,.62-3.87,1.15-5.7,1.76-7.2,2.42-14.45,3.62-21.92,1.19-6.06-2-9.41-6.23-9.58-12.53-0.36-13.23,5.18-24.19,14.68-32.65,18.8-16.76,41.22-20.54,65.39-16,8.87,1.67,17.59,5.36,23.08,12.09a65.76,65.76,0,0,1,11.85,23.78c5.66,20.82.59,41.32-6.79,60.59a114.34,114.34,0,0,1-39.56,52.16c-15,11-30.9,19.28-50.48,20.55-23.46,1.52-45.8-3.17-68-8.86-17-4.37-33.3-11.5-50.1-16.82-14-4.44-28.58-7.36-43.34-5.61-11.85,1.41-23.82,3.36-35.2,6.85C349.94,505,330.67,510,314.43,522c-0.69.51-2.05,0.1-3.1,0.12,0.28-1,.28-2.2.9-2.85a51.42,51.42,0,0,1,5.16-4.54c9-7.21,18.45-13.84,26.81-21.68a306.2,306.2,0,0,0,46-54.28c12.11-18.26,22.91-37.08,30.13-57.72,7.08-20.26,13.12-40.89,19.82-61.28,8.26-25.14,16.86-50.18,25.1-75.33Q489,171.86,512.42,99.13c2.74-8.53,7.27-15.11,15-19.7,7.42-4.4,14.68-9.06,21.86-13.85,1.23-.82,1.67-2.84,2.48-4.3-1.38-.67-2.73-1.85-4.13-1.91a115.36,115.36,0,0,0-12.46.22c-19.61,1.3-39.2,2.2-58.84.05-7.75-.85-15.64-0.62-23.46-0.51-4.51.06-7.16,3.58-5,6.18,2.93,3.58,6.23,6.86,9.43,10.22,5.31,5.57,9.91,11.14,6.77,19.83-3.38,9.36-6,19-9.13,28.46-8.51,26.13-17.13,52.22-25.62,78.35-9.72,29.9-19.3,59.85-29,89.75-10.52,32.29-21,64.61-31.81,96.8-4.74,14.06-8.28,28.59-15.67,41.71-11.71,20.8-25.07,40.19-43.13,56.22a295.72,295.72,0,0,1-50.79,36.74,57,57,0,0,0-5.18,3.83c2.52,1,4,1.68,5.58,2.09,12.81,3.37,21,11.45,25.32,23.91,2.18,6.33,3.6,6.71,8.95,2.12a101.81,101.81,0,0,1,32.65-18.83c14.68-5.19,30-6.8,45.28-6.24,21.64,0.79,42.05,7.85,62.37,14.8,22.81,7.8,45.11,17.58,69.84,17.94,3.66,0.05,4.35,1.93,2.49,4.87-3,4.71-4.83,10-7.59,14.84-9,16-17.65,32.47-22.11,50.48-1.76,7.12-2.87,15-1.79,22.09,2,13.43,10.27,23.4,21.73,30.67,12.25,7.77,25.47,11.12,39.93,9s25.81-10.29,36.29-19.42c9.22-8,17.53-17.18,25.79-26.24,5.25-5.76,8.84-13.29,14.71-18.18,8.1-6.75,12.66-15.7,18.51-23.89,6.68-9.37,13.89-18.21,22.86-25.63,9.51-7.87,19.46-8.86,30.19-3.54,7.6,3.77,15,7.93,22.48,12,10.45,5.67,21.15,10.6,33.27,11.33,2.66,0.16,5.34,0,8,0a124.79,124.79,0,0,1-16.09,14.29c-2.88,2.19-6.32,3.64-9.16,5.86-5.74,4.48-11.09,9.45-16.87,13.86-7.73,5.9-15.88,11.26-23.55,17.24-8.24,6.42-16.1,13.32-24.17,20-4.08,3.35-7.82,7.57-12.49,9.64-11.06,4.88-22.76,8.31-33.86,13.1-7.63,3.29-14.89,7.81-19.28,15.28-2.2,3.75-4.85,8.17-4.7,12.19,0.49,13.19,15.7,21.28,26.66,16.64a69.68,69.68,0,0,0,17.32-11.19,184,184,0,0,0,19.87-19.48c7.48-8.58,14.42-17.27,27.73-13,0.77,0.24,1.69,0,2.48.19,6.65,1.68,13.39,3.46,17.34,9.72,5.41,8.58,7.17,18.21,6.58,28.2a8.07,8.07,0,0,1-3.33,5.47,165.4,165.4,0,0,1-19.4,11.16q-35.38,16.31-71.11,31.87c-2,.86-5,0.24-7.21-0.63-3.36-1.34-6.21-4-9.61-5.22-27.72-9.58-55.82-9.59-84.15-2.92a6,6,0,0,1-4.28-1.13c-7.24-5.3-14.07-11.22-21.57-16.1-15.71-10.23-31.41-20.55-47.75-29.72-22.55-12.66-46.58-22.09-71.46-29.2a281.75,281.75,0,0,0-58.86-10.59c-38.17-2.53-75.65-.29-112.14,13a219.22,219.22,0,0,0-49.44,25.64c-7.35,5-14,11.2-20.67,17.16C105.5,760.19,91.91,781.71,85,807.3a134.87,134.87,0,0,0,3.27,81.85c5.83,16.44,16.12,30.27,29,41.88,13.08,11.84,27.46,21.84,44.46,27.7,12.68,4.37,25,9.8,37.69,14.16,7.29,2.51,15,3.83,22.85,5.77-4.49,7.25-9.34,13.94-13,21.24-6.24,12.44-12.41,25-17.41,38-11.47,29.77-15.8,60.78-14.42,92.65,1.26,29,8.48,56.25,23.34,81.22,8.86,14.89,19.48,28.29,33,39.6A129,129,0,0,0,272,1273.95c27,9.94,54.87,9.77,82.78,4.72,20.85-3.77,41.15-9.51,59.57-20.53,12.36-7.39,25.16-14.14,36.94-22.36,9-6.27,17-14.12,24.95-21.74,8.3-8,16.25-16.3,24-24.8,14.79-16.25,27.45-34.18,36.83-54a284.64,284.64,0,0,0,16.51-44.32c8.52-30.13,10-60.81,1.67-91.28-4.11-15-12.45-27.53-26.47-35.44-12.75-7.19-26.55-8.86-41-8.36-24.93.87-46.38,10.56-65.87,25.22-7,5.24-13.3,11.37-19.68,17.36-7.57,7.11-15.57,13.91-22.14,21.88-16.23,19.7-30.69,40.49-39.45,64.94-6.57,18.33-10.19,36.88-9,56.26,0.76,12.78,7,27.16,22.11,27.33,5.38,0.06,11.06.49,16.07-1,4.57-1.38,9.56-4.29,12.37-8,9.47-12.61,10-27.11,6.18-41.87-0.58-2.25-3-4.05-4.62-6s-2.91-4.49-5-5.5c-6.24-3-12.76-3.48-19.19-.05-1.52.81-3.2,1.34-5,2.05a6.34,6.34,0,0,1-.59-2c3.47-17,11.3-32.16,20.37-46.57,5.24-8.32,12.41-15.44,18.79-23,12.33-14.7,25.91-28,41.64-39.15,14.06-9.95,29-17.88,46.18-20.25,15.8-2.18,30.67.44,42.73,12,11.12,10.62,15.33,24.24,15.78,39.16,1.14,38.13-13.19,71.66-32.23,103.38-8.78,14.63-19.4,28.21-29.79,41.8-7.65,10-15.54,20.07-24.71,28.61-10.4,9.69-22.07,18.1-33.68,26.37A177.93,177.93,0,0,1,360,1255.95a155.61,155.61,0,0,1-55.57,3.73c-24.47-2.57-45.8-12.11-61.51-32.38-14.26-18.4-20.29-39.46-21.57-62.09-2.24-39.49,6.49-77.14,21.14-113.47a373.66,373.66,0,0,1,32.78-63.11c1.63-2.52,3.4-3,6.11-3.11,18.41-.95,37.05-0.65,55.17-3.55a606.69,606.69,0,0,0,69.9-15.65A507.83,507.83,0,0,0,493.6,933c3.13-1.56,5.43-1,8.43,1.36a61.31,61.31,0,0,0,15.84,9.16c20,7.46,40.52,6.42,61.08,2.48,4-.77,8-1.62,12.7-2.57,0,2.22-.08,3.82,0,5.41,0.37,6,.4,12,1.32,17.86a8.83,8.83,0,0,0,14.72,4.92c2.06-1.94,4.15-4.83,4.43-7.48a156.69,156.69,0,0,0,.74-22.88c-0.16-3.77,1.06-5.35,4.2-6.75,9.37-4.19,18.86-8.21,27.87-13.09,10.82-5.85,21.14-12.62,31.79-18.8,15.71-9.11,29-21.16,41.24-34.33a134.88,134.88,0,0,0,32.13-57.8c3.1-11.83,5.52-24.2,5.63-36.36,0.1-11.46-3-23-5.2-34.39-0.67-3.46-.25-5.63,2.39-7.81,4.61-3.8,9.41-7.48,13.48-11.82,11.7-12.46,23.43-24.92,34.44-38a234.79,234.79,0,0,0,19.34-27.12A271.1,271.1,0,0,0,836,625.75C839.14,619.06,836.81,614.94,830.31,612.09ZM600.78,806.36c6.65,13.45-6.85,37.92-19.55,49.57-3.79-5.91-7.32-11.48-10.93-17a20.7,20.7,0,0,0-3.14-3.78c-3.74-3.49-3.84-5.39.4-8.09C578.55,820.05,589.68,813.26,600.78,806.36ZM584.4,793.59l0.38,1.55c-1.87,1.19-3.66,2.54-5.63,3.54-8.56,4.39-17.09,8.87-25.84,12.86-2,.91-5.43.9-7.17-0.26-7.73-5.12-15.09-10.78-22.54-16.31-0.7-.52-1.08-1.47-2.46-3.41C543,791.14,563.84,788.46,584.4,793.59ZM280.45,895c-11.95,13.26-23,27.35-34.24,41.2-4.49,5.52-8.88,11.15-12.84,17.05-5.41,8-5.49,8.07-15.26,4.88-8.34-2.73-17-4.6-25.27-7.38-19.83-6.61-38.19-15.86-54.68-29-16-12.78-25.75-29.14-30.79-48.53-5.69-21.91-3.3-43.22,6.18-63.74,6.91-14.95,17-27.43,29.43-38.17a81.83,81.83,0,0,0,7.61-7c0.84-.94.57-2.89,0.81-4.38l1-1c3,2.2,5.12.4,7.54-1.28,7.17-5,14.08-10.51,21.81-14.38A252.23,252.23,0,0,1,212.18,731c31.63-10.93,64.31-11.34,97.28-9.47A366.67,366.67,0,0,1,379,731.82c17.39,4.41,34.77,9.62,51.27,16.58,19.41,8.2,37.86,18.66,56.71,28.18a49.31,49.31,0,0,1,4.84,3.38c-3.2,1-5.21,1.53-7.19,2.18q-29.84,9.73-59.67,19.49c-21.3,7-41,17.34-60.33,28.56-8,4.67-16,9.43-23.72,14.62-4.81,3.25-9,7.39-13.52,11.13l-1,1q-0.46,0-.93,0l-1.11,0c-6.56,5.3-13.27,10.44-19.64,16C296.42,880.09,287.73,886.93,280.45,895Zm214.2-31.73c-10.14,14.16-12.88,30.14-8,47,1,3.39-1,4.37-3.06,5.14C460,924.13,436.62,933.58,412.65,941a687.15,687.15,0,0,1-70,17.62c-17.22,3.39-35,4-52.55,5.66a6.55,6.55,0,0,1-3.91-1.28c-0.33-.23,0-2.29.65-3,7-7.94,14.06-15.91,21.37-23.6,9.74-10.24,19.42-20.57,29.7-30.25q17-16.05,35.15-30.94c12.13-10,24.66-19.48,37.37-28.71C437.3,827,466.52,812,497.54,800.2c6.1-2.31,10.27-1.25,14.7,2.81,6,5.48,12.24,10.65,18.27,16.09,1,0.92,1.46,2.48,2.1,3.63l-8.91,8.72,0.73,0.49c-2.21,1.13-5,1.75-6.54,3.49C509.91,844.51,501.67,853.47,494.64,863.28Zm9.81,37.19c2.8-7.06,4.73-14.65,8.61-21.05a156.15,156.15,0,0,1,17.5-22.92c4.73-5.27,10.58-9.59,16.26-13.92,1-.77,4.42-0.13,5.29,1,5.12,6.53,9.92,13.32,14.53,20.22,0.66,1,.22,3.47-0.62,4.53a26.26,26.26,0,0,1-5.67,4.82,371.41,371.41,0,0,1-50.46,29.92C507.08,904.43,505.46,904.52,504.45,900.47Zm77.21,24.35a94.8,94.8,0,0,1-46,7.06c-6-.52-11.95-2.76-17.82-4.55-1.56-.47-2.74-2.16-4.71-3.8,23.21-11.89,42.9-26.17,61.87-42.52,5.76,11.12,10,21.85,12.45,33.25C589.09,921.82,588.87,921.75,581.67,924.82Zm25.68-14.64a30.38,30.38,0,0,1-1.71-2.82c-5.24-11.07-10.36-22.19-15.7-33.21-1.61-3.32-.1-5.12,2.09-7.3,5.62-5.62,11.64-11,16.35-17.34,10.32-13.86,15.14-29.47,11.44-46.85-0.83-3.9.23-5.85,3.7-7.39,13.25-5.89,26.51-11.78,39.62-18,10.5-5,20.77-10.42,31.16-15.62,4-2,8-3.87,12.35-6C711.8,789,646.06,891.19,607.35,910.18Z"/><path class="b" d="M1733.29,1087.38a63.76,63.76,0,0,0-21.84,3.92,140.76,140.76,0,0,0-41,24.93c-14.65,12.63-28.57,26.11-42.8,39.23-1.14,1.05-2.24,2.14-3.36,3.21-0.81-2.93-1.08-5.51-.22-7.63,2.46-6.07,5.73-11.82,8-17.94,4.7-12.46,9.54-24.95,9.25-38.62-0.14-6.6-1.52-7.86-7.73-7a31.9,31.9,0,0,0-6.22,1.51c-9.54,3.39-19.05,6.88-28.6,10.34-3-11.07-3.45-10.43-14.94-10.89-13-.52-26.19,1.26-39.07,3.45-21.24,3.61-41.26,11.29-60.5,20.95-4.28,2.15-8.3,4.81-12.52,7.09-8.31,4.49-17.07,8.29-24.92,13.47a312.84,312.84,0,0,0-28.07,21.19,144.64,144.64,0,0,0-16,16.39c-5.44,6.26-10.34,13-15.48,19.5l-1.4.38c1.86-8.9-3-14-9-19.1-0.72,1.42-1.2,2.44-1.75,3.44-5.47,9.92-9.79,20.75-16.71,29.53-9.57,12.13-18.57,25.16-32,33.75-9.08,5.78-18.44,10.12-29.59,10.92-9.9.71-19.15-6.75-18.51-17.87,0.55-9.6,1-19.35,3.09-28.67,3.13-13.88,7.75-27.41,15.51-39.6,2.65-4.15,4.36-4.26,8-.73a19.08,19.08,0,0,0,14.48,5.41c11.2-.27,21.63-3.53,31.9-7.45,17.41-6.64,33.46-15.64,46.69-28.95,7-7,12.89-14.86,14.47-25.1,1.31-8.44-2.06-15.23-10.21-17.68a55.1,55.1,0,0,0-18.14-2.3c-21.81,1-41.56,9-59.56,20.77-11,7.24-21,16.15-31.42,24.34-12.08,9.48-20.79,21.85-28.74,34.69-4.58,7.41-7.9,15.6-11.76,23.45-8.68,17.63-11.48,36.38-10,55.78,1.25,16.27,11.66,26.78,27.58,28.47,18.33,1.94,34.74-3.77,50.23-12.86,2.49-1.46,4.38-4.88,6.85-5.22,4.57-.64,6.33-2.94,7.08-6.89h1l1,0,1-.05,1-1h0l1-1c2.06-.92,4.51-1.41,6.13-2.83,7.85-6.93,15.47-14.1,23.17-21.19,1.1-1,2.21-2,3.32-3-3.82,11.17-4.16,22.22-3.07,33.37,0.62,6.35,3,11.72,8.82,15.39,8.17,5.14,16.84,3.85,25.15,1.88,19.18-4.56,35.56-14.86,50.56-27.26,3-2.5,7.89-4.07,7.92-9.34l1-1h0l1-1h0l1.05-.17a3.89,3.89,0,0,1,.91-0.14l1-.68c8.48-4,12.72-12.3,18.82-18.69,3.93-4.12,7.19-8.89,11.25-14-4.79,12.42-9.14,24.09-13.78,35.65-4.71,11.74-8.42,23.63-8.17,37.27,14.72-2.43,28.43-6,41.39-11.42s25.32-12.39,38.76-19.08l-12.37,30.93a16.8,16.8,0,0,0,2.93-.16c10.3-2.74,20.64-5.33,30.82-8.45a9.86,9.86,0,0,0,5.34-5.05c8.15-18.83,17.42-37.13,29-54,9.31-13.51,20-26.09,30.41-38.82a150.51,150.51,0,0,1,15.43-16.29,257.77,257.77,0,0,1,21.29-17.29c7-5.07,14.39-9.51,21.76-14,1.09-.66,3.31-0.35,4.47.37,0.61,0.38.48,2.84-.07,4-3.21,6.9-6.76,13.65-10,20.55-9.72,20.75-19.23,41.6-29,62.32a211.34,211.34,0,0,0-19.12,67.5c8-1.77,15.58-3.25,23.05-5.15a169.87,169.87,0,0,0,47.06-19.84c1.26-.77,2.84-2.41,2.84-3.65,0-6.34-7.76-10.22-13.28-7a49.81,49.81,0,0,1-9.36,4.14c-1.86.61-4,.26-6,0.35,0-2.22-.19-4.45,0-6.66a10.55,10.55,0,0,1,1.29-3.23q18.57-40,37.18-80.07c3.22-6.89,7.22-13.44,10.22-20.42a198,198,0,0,0,9-24.34C1750.39,1096.16,1743.95,1087.25,1733.29,1087.38Zm-410.21,41.56c9.5-9.61,20.88-16.25,34.33-18.66a38.77,38.77,0,0,1,11.4-.12c5.46,0.67,7.4,3.62,6.66,9.06-1.21,8.94-7.61,14.46-14.19,19.06a73.06,73.06,0,0,1-34.83,12.53c-6.59.67-13.31,0.12-20,.12l-0.93-2.17C1311.37,1142.13,1316.89,1135.2,1323.07,1128.94Zm185.37-3c-5.05,14.26-9,29.12-15.7,42.54-9.38,18.68-20.45,36.65-36.62,50.62-8.91,7.7-17.85,15.4-27.16,22.59a29.23,29.23,0,0,1-11.71,5.19c-7.37,1.5-11.31-1.59-12.93-8.92a32.38,32.38,0,0,1-.86-5.42c-0.7-14.92,3.62-28.82,10.8-41.44,7.73-13.59,18.51-25,30-35.73,18.73-17.55,38.7-27.59,60.33-34.61a28.26,28.26,0,0,1,4.49-.59C1508.83,1122.48,1509,1124.34,1508.45,1125.94Zm88.55-2.2q-10,30.57-20.48,61c-2.93,8.49-6.19,16.89-9.76,25.13a15.25,15.25,0,0,1-5.7,6.29c-6,3.82-12.52,6.94-18.61,10.69-2.61,1.61-4.7,4.08-7,6.16l0,0c-3.59,1.91-7.15,3.88-10.78,5.72-1.89,1-3.89,1.7-6.06,2.63-3.15-5.07-.07-9.21,1.38-13.05,6.59-17.57,14.2-34.78,20.35-52.49,6.84-19.72,8.27-39.71-1.76-59.14a14,14,0,0,1-.44-2.66c10.19,0,20.09-.06,30,0.08a4.22,4.22,0,0,1,3.22,1.89c2.09,4.93,6.06,3.61,9.66,3.08,3.43-.5,6.77-1.69,10.21-2.14C1596.24,1116.27,1598.6,1118.84,1597,1123.74Z"/><path class="b" d="M1113.05,1111.14c-1-12.31-8.11-20.31-20.33-21.71a74.15,74.15,0,0,0-22.73.67c-27.65,5.57-50.95,19.72-71.86,38.2-1.14,1-2.91,1.28-4.39,1.9-0.12-1.68-.77-3.55-0.26-5,2.53-7.22,5.59-14.25,8.07-21.49,11.12-32.44,22.4-64.83,33-97.45,3.34-10.32,4.65-21.3,7.11-33l-75.29,27.36c1,2.65,1.92,4.77,2.56,7,1.15,3.95,3.29,5.27,7.43,4a77.52,77.52,0,0,1,12.67-2.82c5-.7,7.15,1.42,5.84,6.3-2.89,10.75-5.83,21.52-9.59,32q-15.08,42.05-30.93,83.83c-8.89,23.34-18.35,46.46-27.6,69.65-3.74,9.38-8.57,18.47-11.13,28.15-2.23,8.41-6.61,15.15-11.42,21.89-3.43,4.8-7.09,9.46-11,13.92-9.81,11.34-18.85,23.46-32.05,31.38-6,3.61-11.91,7.44-19.32,7.31-7.77-.14-11.59-3.62-11.43-11.3a37.69,37.69,0,0,1,2.2-12.7c3.5-9,7.59-17.73,11.67-26.46,7.09-15.16,14.22-30.3,21.59-45.31,4.32-8.8,9.28-17.27,13.7-26,2.36-4.66,4-9.67,6.29-14.37,2.14-4.4,4.77-8.56,7-12.91,1.38-2.66,2.44-5.48,3.37-7.62-17.68-.53-34.9-1.1-52.13-1.45a5.08,5.08,0,0,0-3.66,2.43q-9.07,17-17.8,34.24c-6,11.86-12.14,23.71-17.92,35.7-5,10.31-10.31,20.56-14.07,31.33a80,80,0,0,0-4.59,25.3c-0.08,10.24,5.25,18.54,12.42,26.31,15.4,16.69,42.74,23.36,64.14,12.67,18.06-9,32.9-22.29,45.18-38.42a9.33,9.33,0,0,1,6.35-3.14c25.58-.83,49.57-8.08,72.35-18.93,11.86-5.64,22.87-13.25,33.73-20.76,15-10.34,29.49-21.33,44.06-32.22,12.22-9.14,21.68-21,30.1-33.46,4.83-7.17,7.49-15.77,12-23.22C1112.35,1132.87,1114,1122.28,1113.05,1111.14Zm-43.69,17.26c-1.52,13.06-5.81,25.36-11.7,36.92-9.33,18.29-21,35.29-35.94,49.32-13,12.18-28.25,21.45-45.9,26.11a112.83,112.83,0,0,1-35.06,3.35c8.41-16.1,16.14-31.14,24.1-46,3.28-6.14,6.48-12.48,10.74-17.93,9.44-12.08,19.35-23.81,29.41-35.39,10.21-11.76,21.73-22.28,36.36-28.06,6-2.38,13.27-2.58,19.89-2.28C1066.89,1114.63,1070.17,1121.42,1069.36,1128.39Z"/><path class="b" d="M842.66,1089c-7.9-3.8-16.29-3.91-23.6-.16-10.83,5.56-20.91,12.59-31.14,19.27-3,2-5.41,4.81-8.08,7.25q-5.51,5-11,10.06c-2.33,2.12-4.69,4.21-7,6.32,0.92-8.25,3.17-15.6,4.62-23.1s2.29-15.46-2.56-23l-27.8,15.4c-0.83-1.81-1.56-2.79-1.72-3.85-1.06-7.21-2.32-8.53-9.38-8.9-23.89-1.24-47,2.95-69.44,10.75a286.5,286.5,0,0,0-37.38,16.35c-15.89,8.24-32,16.44-46.56,26.76A179.41,179.41,0,0,0,516.95,1204c-8.4,15.64-13.81,32.32-10.19,50.37a25.19,25.19,0,0,0,7.15,13.06c6.85,6.15,15.88,5.13,24.22,3.71,12.46-2.13,23.66-7.92,34.09-14.71a252.18,252.18,0,0,0,28.6-21.46c8.31-7.28,15.59-15.76,23.09-23.92,3.4-3.7,6.24-7.91,9.33-11.89-9.18,23.27-20.59,45.71-21.65,71.94,2.28-.34,3.77-0.43,5.17-0.8,10.15-2.71,20.67-4.51,30.33-8.44C661.36,1256,675,1248.67,689,1242a23.73,23.73,0,0,1,4.5-1.16,45.12,45.12,0,0,1-1.16,4.69c-3.12,8.65-6.3,17.27-9.74,26.64,11-2.18,20.94-4.3,30.92-6,4.23-.73,6.11-2.93,7.39-6.89,6.63-20.58,12.83-41.34,20.56-61.51a247.32,247.32,0,0,1,20.41-42.13c6.92-11.12,15.92-21.36,27.67-28.17,6.4-3.72,12.91-8.15,19.93-9.67,8.07-1.74,16.77-.51,25.18-0.83,1.58-.06,4.1-1,4.52-2.19,2.42-6.68,4.35-13.54,6.41-20.34C846.35,1091.71,845.2,1090.19,842.66,1089Zm-199.13,45.09c-6.77,24.13-18,46-32.83,66.22-2.55,3.48-4.89,7.12-7.33,10.69q0,0.5,0,1l-2,1-1,1q0,0.51,0,1t0,1l-1,1h-1l-1,0a39.8,39.8,0,0,0-5.15,3.68c-9.53,9.34-19.25,18.39-31.46,24.23a25,25,0,0,1-4.63,1.84c-8.39,2.1-13-.58-14.33-9.06-1.89-11.78-.07-23.3,4.42-34.25a121.31,121.31,0,0,1,25.55-38.31c7.06-7.28,14-15.06,22.28-20.69,10.65-7.22,22.59-12.55,34-18.58,2.78-1.47,5.78-2.53,8.69-3.74,5-2.05,6.74-1.18,7.33,4.11A21.11,21.11,0,0,1,643.54,1134.06Zm81.44,1.4c-5.06,19.49-10.54,38.87-15.91,58.28-1.55,5.61-3.69,11.08-4.85,16.77-1.05,5.14-4.64,7-8.63,9.3-9.92,5.66-19.58,11.76-29.35,17.68a30.9,30.9,0,0,1-5.12,2.94c-4.63,1.69-6.91-.15-5.7-5a156.14,156.14,0,0,1,5.61-17.58c3.61-9.48,8.25-18.62,11.25-28.28,5.92-19.07,11.69-38.39,5.54-58.58-1.35-4.43-4.24-8.38-6.4-12.56-0.44-.85-0.78-1.74-1.63-3.66h36.73l-5.81,3.62a2,2,0,0,0-.27.93c3.41,11,3.41,11,15.75,7.73C725.65,1124.53,727.44,1126,725,1135.46Z"/><path class="b" d="M1280,1110.51c-0.72-6.3-2.58-12.09-8.7-15.41l-0.94-.13c-1.84-1.53-3.51-4-5.57-4.41a79.69,79.69,0,0,0-17.62-1.64c-10.8.47-21.12,3.38-31.16,7.49-17.75,7.27-34.1,16.58-47.66,30.4-2.79,2.84-6.07,5.2-10.09,8.59v-5.32l-0.87-1.1c2.26-4.55,5-8.93,6.71-13.69,12.24-34.49,24.64-68.92,36.15-103.66,4-12,5.58-24.86,8.31-37.58a10.19,10.19,0,0,0-2.55-.17c-23.15,8.36-46.3,16.72-69.38,25.26a4.48,4.48,0,0,0-2.24,3.6c0.86,7.42,4.17,9.69,11.25,8.15l5.85-1.29c10.41-2.24,12.71-.13,9.49,9.83-6.59,20.42-13.22,40.84-20.52,61-8.53,23.56-17.58,46.93-26.79,70.24-12.17,30.8-24.8,61.42-37,92.2-3.63,9.14-6.61,18.54-10.18,28.65,3,0.16,4.84.49,6.58,0.3,11.55-1.32,23.15-2.35,34.61-4.23,26.87-4.41,51-15.82,73.28-31,15.81-10.73,31.18-22.12,46.51-33.53,11.78-8.78,22.23-19.08,30.35-31.36,5.27-8,9.63-16.54,14.31-24.88C1278.43,1135.57,1281.5,1123.5,1280,1110.51Zm-43.49,16.5c-1.27,12.54-5.29,24.19-10.67,35.6a181.68,181.68,0,0,1-30.75,45.15c-20.95,22.9-46.61,36.07-78.15,36.41-2.14,0-4.28,0-7.2,0,1.12-3.26,1.81-6.3,3.15-9,6.63-13.41,12.78-27.12,20.39-40,6.32-10.67,14.14-20.5,21.81-30.31,6.42-8.21,13.63-15.81,20.36-23.79a29,29,0,0,0,2.93-5.11,47.57,47.57,0,0,0,6.1-3.76c9.22-7.78,18.89-14.82,30.85-17.69a33.14,33.14,0,0,1,10.84-.85C1233.51,1114.43,1237.28,1119.48,1236.52,1127Z"/></svg>