<svg xmlns="http://www.w3.org/2000/svg" viewBox="0 0 550 102"><title>logo-the_shiloh_group</title><path d="M396.84,51.93c0,5.85-.14,11.7.12,17.54,0,3.43,4.4,3.68,4.4,3.68v3.23H384.53V73.5c4.53-1,4.79-1.3,4.8-6.11q0.05-15.44,0-30.89c0-4.93-.14-5.05-4.85-6.41V27.15c2.92,0,5.69,0,8.46,0,4.89,0.05,9.8-.08,14.68.27,5.22,0.38,6.65,3.22,6.78,8.43,0.14,5.37-1.26,9.62-5,13.21-1.22,1.16-2.59,2.18-4.24,3.55,3.43,5.62,6.78,11.37,10.42,16.93A9.22,9.22,0,0,0,421,73.6V76.5h-8.3c-1.9-.54-3.84-2.65-4.86-4.46-3.68-6.62-7-13.45-10.43-20.2Zm-0.21-12.67v7.92a30.94,30.94,0,0,0,4.14,2A4.12,4.12,0,0,0,406,47.68c2.56-3.6,1.42-13-1.9-15.93-1.8-1.59-3.71-1.33-5.79-.58a5.75,5.75,0,0,0-1.71,1v7.13Z"/><path d="M53.33,61.87c-2.33.58-3.15-1.21-3.78-3.07a3.39,3.39,0,0,1,1.95-4.47c1.8-.89,2.12-2.37,2.11-4.21q0-15.58.12-31.16a4.19,4.19,0,0,1,.58-1.79,1.39,1.39,0,0,1,1.82-.63c0.89,0.41,1.77.83,2,1.46a28,28,0,0,1,1.44,8.18c0,6.79-.31,13.59-0.5,20.38,0,1,0,1.94,0,3.32,3.35-1.55,6.43-2.9,9.42-4.43a2.74,2.74,0,0,0,.82-2c0.45-7.28.81-14.56,1.25-21.84a10.51,10.51,0,0,1,.32-1.82,1.39,1.39,0,0,1,2-.91,5.35,5.35,0,0,1,3,5.17c-0.11,5.49-.92,15.86-1.23,19.84,3,0.22,4,1.41,4.87,4.48,0.35,1.23-2.24,2.28-4.71,2.77,0,4.77.51,11.54,0.82,17.29,0.24,4.47,1.23,8.9,1.74,13.36a4.86,4.86,0,0,1-.24,1.81,1.15,1.15,0,0,1-1.49.78,3,3,0,0,1-1.75-1.05c-1.18-2.25-2.45-4.67-2.71-7.12C70.31,68.49,70,60.72,69.38,52.3,66,54.25,58.83,58.48,58.83,58.48s-0.08,14,2.45,23a14.61,14.61,0,0,1,.22,3.1,1.16,1.16,0,0,1-1.62,1.13,6.29,6.29,0,0,1-3.78-5C55.07,74.54,54.28,68.41,53.33,61.87Z"/><!-- <path d="M593.51,56A78.38,78.38,0,0,1,602,20.2c2.7-5.25,6.62-5.87,10.09-1.24a17.7,17.7,0,0,1,3.3,6.87,32.15,32.15,0,0,1-1.73,19.31c-0.93,2.14-3,2.45-4.38.59a5.48,5.48,0,0,1,0-7c2.61-3.69,3-7.8,2.35-12a10.37,10.37,0,0,0-1.22-3.14,1.37,1.37,0,0,0-2.06-.45A6.57,6.57,0,0,0,606,25.65a122.85,122.85,0,0,0-5.39,16.43,60.9,60.9,0,0,0,.25,28.8,19.73,19.73,0,0,0,2.88,6.18c2.16,3.13,4.9,3,7.36.05,2.94-3.51,3.12-7.91,4.07-12.06,0.38-1.65.48-3.37,0.86-5a2.06,2.06,0,0,1,1.13-1.42,2.64,2.64,0,0,1,1.55,1.11,2.36,2.36,0,0,1,.44,1.41c0,6.23-.29,12.38-4,17.77-0.85,1.23-1.5,2.58-2.31,3.83-2.49,3.86-6.12,4.54-9.67,1.6-5.75-4.76-7.83-11.41-8.88-18.45C593.82,62.64,593.76,59.33,593.51,56Z"/> --><path d="M138.16,60.49l3.37-.16s0.35,3.63.67,4.85a23.81,23.81,0,0,0,1.51,4.51c2.12,4.26,6.1,4.9,9.89,3.24,3.46-1.51,5.19-6.26,3.36-10.3a18,18,0,0,0-4-5.43c-2.61-2.46-5.58-4.53-8.32-6.85-5.39-4.58-6.83-10.12-4.19-15.7A15.28,15.28,0,0,1,156,26.31,19.69,19.69,0,0,1,161.39,28V41.1h-3.54a29,29,0,0,0-.77-6.65c-1.17-3.4-4.06-4.85-7.53-4-2.71.68-5.93,3.8-4.93,6.78a19.54,19.54,0,0,0,4.54,7.56c3.1,3.08,7.83,5.55,9.31,6.62,8.43,6.14,6.57,16.75-.27,22.34a17,17,0,0,1-18.83,1.71,5.4,5.4,0,0,1-1.22-1.43V60.49Z"/><!-- <path d="M578.55,73.57a89.94,89.94,0,0,1,9.53-3,4.32,4.32,0,0,1,5.25,4.61c0,0.88-1.41,2.46-2.07,2.41-3.38-.25-5.95,1.19-8.46,3.14-4.62,3.58-7.94,2.39-9-3.49a46.63,46.63,0,0,1-.35-8.94A209.68,209.68,0,0,1,579.76,21,5.32,5.32,0,0,1,581,19a1.42,1.42,0,0,1,2-.16,5.27,5.27,0,0,1,1.83,2.31c0.41,1.62,0,3.53-.41,5.26-2.92,13.88-5.55,27.79-5.85,42C578.52,70.11,578.55,71.79,578.55,73.57Z"/> --><!-- <path d="M557,73.63a95.89,95.89,0,0,1,9.5-3c3-.62,5.3,1.45,5.45,4.46,0.08,1.56-.32,2.9-2.3,2.64-3.15-.42-5.61,1-8,2.77-5.22,3.93-9.07,2.37-9.49-4.3a95.53,95.53,0,0,1,.23-18c1.56-12.36,3.72-24.65,5.81-36.95a4.84,4.84,0,0,1,1.35-2.2,1.41,1.41,0,0,1,2.13,0c0.9,1.05,1.83,2.1,1.73,3.06C563,27,561.63,31.79,561,36.62c-1.45,11.07-2.67,22.18-3.94,33.28A34.11,34.11,0,0,0,557,73.63Z"/> --><path d="M104.5,61.65L104,65a10,10,0,0,1-9.86,8.63H89.83v-20h12v-5H96.31a6.47,6.47,0,0,1-6.47-6.47V30.65H93a9.34,9.34,0,0,1,9.32,9.94l-0.07,1.06h3.58v-16h-2.58l-0.09,1H77.83v4h1.89a3.11,3.11,0,0,1,3.11,3.11V69.9a3.75,3.75,0,0,1-3.75,3.75H77.83v3h24.63l-0.21,2h3.5l1.92-17H104.5Z"/><path d="M46.9,25.65l0,0.8a1.26,1.26,0,0,1-1.26,1.2H19.38a1.26,1.26,0,0,1-1.26-1.2l0-.8H14.83v16h4.25l-0.18-2.77a7.73,7.73,0,0,1,7.72-8.23h2.21V69.36a4.29,4.29,0,0,1-4.29,4.29H23.83v3h17v-3H40.12a4.29,4.29,0,0,1-4.29-4.29V30.65h2.53a7.73,7.73,0,0,1,7.72,8.23L45.9,41.65h3.93v-16H46.9Z"/><path d="M210.83,30.65v-3h-17v3h1a4,4,0,0,1,4,4v35a4,4,0,0,1-4,4h-1v3h17v-3h-1a4,4,0,0,1-4-4v-35a4,4,0,0,1,4-4h1Z"/><path d="M238.42,61.65L238,64.86a10,10,0,0,1-10,8.79h-4.22v-39a4,4,0,0,1,4-4h1v-3h-17v3h1a4,4,0,0,1,4,4v35a4,4,0,0,1-4,4h-1v3h23.3A1.2,1.2,0,0,1,236.33,78l-0.08.66h3l2.17-17h-3Z"/><path d="M272.06,27.45c-11.43-4.33-24.85,3.11-30,16.63s0,28,11.42,32.32,24.85-3.11,30-16.63S283.49,31.79,272.06,27.45Zm-4.4,45.13c-8.44,2-17.47-5.64-20.17-17.05s2-22.28,10.41-24.27,17.47,5.64,20.17,17.05S276.1,70.6,267.66,72.59Z"/><path d="M290.95,61.84c-2.81.68-3.57-1.18-4.21-3a3.15,3.15,0,0,1,1.67-4.28c2.09-1,2.39-2.56,2.38-4.63q-0.07-15.56.12-31.13a3.69,3.69,0,0,1,.74-1.8,1.45,1.45,0,0,1,1.83-.54,2.85,2.85,0,0,1,1.63,1.23,30.07,30.07,0,0,1,1.61,8.13c0.13,5.68-.21,11.38-0.32,17.07,0,2.18,0,4.37,0,7,3.14-1.46,6.22-2.79,9.18-4.34a3.07,3.07,0,0,0,.92-2.23c0.45-7.27.79-14.55,1.26-21.82a4.22,4.22,0,0,1,.46-1.5,1.46,1.46,0,0,1,2-.68,3.08,3.08,0,0,1,1.48,1.17,11.91,11.91,0,0,1,1.43,5.34c-0.19,6-.73,11.93-1.15,18.09,2.74,0.3,5.25,1.39,4.71,4.65-0.19,1.17-4.06,2.65-4.41,2.44,0,3-.21,5.92,0,8.85,0.63,7.25,1.51,14.47,2.19,21.72a5.39,5.39,0,0,1-.15,1.63,1.45,1.45,0,0,1-2,1,3,3,0,0,1-1.57-1.07,17.93,17.93,0,0,1-2.47-6.59c-0.68-6.75-.94-13.54-1.35-20.32-0.06-1.06,0-2.12,0-4.1-3.81,2.21-7,3.94-10.06,5.93-0.57.37-.71,1.79-0.63,2.69,0.64,6.75,1.44,13.48,2.06,20.23a12.73,12.73,0,0,1-.05,2.42,1.45,1.45,0,0,1-2.33,1A5.36,5.36,0,0,1,293.83,82a108.34,108.34,0,0,1-2.44-13.49C291.08,66.42,291.1,64.31,290.95,61.84Z"/><path d="M169.59,61.87c-2.81.68-3.57-1.18-4.21-3A3.15,3.15,0,0,1,167,54.62c2.09-1,2.39-2.56,2.38-4.63q-0.07-15.56.12-31.13a3.69,3.69,0,0,1,.74-1.8,1.45,1.45,0,0,1,1.83-.54,2.85,2.85,0,0,1,1.63,1.23,30.07,30.07,0,0,1,1.61,8.13c0.13,5.68-.21,11.38-0.32,17.07,0,2.18,0,4.37,0,7,3.14-1.46,6.22-2.79,9.18-4.34a3.07,3.07,0,0,0,.92-2.23c0.45-7.27.79-14.55,1.26-21.82a4.22,4.22,0,0,1,.46-1.5,1.46,1.46,0,0,1,2-.68,3.08,3.08,0,0,1,1.48,1.17,11.91,11.91,0,0,1,1.43,5.34c-0.19,6-.73,11.93-1.15,18.09,2.74,0.3,5.25,1.39,4.71,4.65-0.19,1.17-4.06,2.65-4.41,2.44,0,3-.21,5.92,0,8.85,0.63,7.25,1.51,14.47,2.19,21.72a5.39,5.39,0,0,1-.15,1.63,1.45,1.45,0,0,1-2,1,3,3,0,0,1-1.57-1.07A17.93,17.93,0,0,1,187,76.62c-0.68-6.75-.94-13.54-1.35-20.32-0.06-1.06,0-2.12,0-4.1-3.81,2.21-7,3.94-10.06,5.93-0.57.37-.71,1.79-0.63,2.69C175.55,67.57,176.36,74.3,177,81a12.73,12.73,0,0,1-.05,2.42,1.45,1.45,0,0,1-2.33,1A5.36,5.36,0,0,1,172.47,82,108.34,108.34,0,0,1,170,68.51C169.72,66.45,169.74,64.34,169.59,61.87Z"/><path d="M449.06,27.69c-11.43-4.33-24.85,3.11-30,16.63s0,28,11.42,32.32,24.85-3.11,30-16.63S460.49,32,449.06,27.69Zm-4.4,45.13c-8.44,2-17.47-5.64-20.17-17.05s2-22.28,10.41-24.27,17.47,5.64,20.17,17.05S453.1,70.83,444.66,72.82Z"/><path d="M385.83,54.65h-18v3h4.07c3.18,1,4.25,3.17,3.38,6.85a8,8,0,0,1-5.47,6,11,11,0,0,1-12-3.11c-6.92-7.19-8.17-23.1-2.52-31.4,3.28-4.81,7.92-6.59,13.53-5.51,5.23,1,8,6.08,8.88,11.2h2.82V28.13c-8.75-2.88-17.5-3.42-25.28,2.81-10.08,8.07-13.86,25.65-7.37,36.88,4.93,8.53,14.18,13.71,24,5.75,0.23-.19.48-0.35,0.73-0.52,3.6-2.42,5.21-.71,6.13,2.75,0.12,0.66.33,1.85,0.33,1.85h2.75v-15a15.51,15.51,0,0,1,.2-2.86c0.22-1.25,2.3-2.17,3.57-2.17h0.23v-3Z"/><path d="M518,27.16a16.68,16.68,0,0,0-4.34.49H488.83v3h0.41c3.09,0,5.59,8.5,5.59,11.59v22a9.42,9.42,0,0,1-9.42,9.42h-3.16a9.42,9.42,0,0,1-9.42-9.42v-30a3.62,3.62,0,0,1,3.62-3.62h1.38v-3h-17v3h1.38a3.62,3.62,0,0,1,3.62,3.62V64.35a13.3,13.3,0,0,0,13.3,13.3h4.49a15.21,15.21,0,0,0,15.21-15.21V42.23c0-3.09,2.5-11.59,5.59-11.59h0a2.41,2.41,0,0,1,2.41,2.41v36.8A2.79,2.79,0,0,1,504,72.65h-2.21v4h17v-4h-2.21a2.79,2.79,0,0,1-2.79-2.79V53a13.41,13.41,0,0,0,5.23,1.43c6.17,0,15-9.46,15-17.18S529.88,27.16,518,27.16Zm3,23.2c-3.11,0-7.07-3.71-7.07-3.71V36.87c0-3.42.28-6,5.84-6s6.79,7.69,6.79,10.7S525.44,50.36,521.07,50.36Z"/></svg>